HIERARCHY
ROOT Hips
{
	OFFSET 0.000000 83.214638 0.000000
	CHANNELS 6 Xposition Yposition Zposition Xrotation Yrotation Zrotation
	JOINT Pelvis
	{
		OFFSET 0.000000 0.000000 0.000000
		CHANNELS 3 Xrotation Yrotation Zrotation
		JOINT LeftUpLeg
		{
			OFFSET 8.479700 -4.795502 -0.379100
			CHANNELS 3 Xrotation Yrotation Zrotation
			JOINT LeftLeg
			{
				OFFSET 0.024144 -32.555107 0.112900
				CHANNELS 3 Xrotation Yrotation Zrotation
				JOINT LeftFoot
				{
					OFFSET -0.024144 -32.638630 -3.012600
					CHANNELS 3 Xrotation Yrotation Zrotation
					JOINT LeftToeBase
					{
						OFFSET 0.970200 -13.225400 11.864200
						CHANNELS 3 Xrotation Yrotation Zrotation
						End Site
						{
							OFFSET 0.000000 12.319262 0.000000
						}
					}
					JOINT LFootTongue
					{
						OFFSET 1.142400 -1.059800 6.665200
						CHANNELS 3 Xrotation Yrotation Zrotation
						End Site
						{
							OFFSET 0.000000 12.319262 0.000000
						}
					}
				}
				JOINT LeftPantLeg
				{
					OFFSET 0.918482 -16.533964 -2.284700
					CHANNELS 3 Xrotation Yrotation Zrotation
					End Site
					{
						OFFSET 0.350399 24.744368 0.000000
					}
				}
			}
		}
		JOINT RightUpLeg
		{
			OFFSET -8.479700 -4.795502 -0.379100
			CHANNELS 3 Xrotation Yrotation Zrotation
			JOINT RightLeg
			{
				OFFSET -0.023144 -32.555092 0.112900
				CHANNELS 3 Xrotation Yrotation Zrotation
				JOINT RightFoot
				{
					OFFSET 0.023144 -32.638641 -3.012700
					CHANNELS 3 Xrotation Yrotation Zrotation
					JOINT RightToeBase
					{
						OFFSET -0.970200 -13.225400 11.864200
						CHANNELS 3 Xrotation Yrotation Zrotation
						End Site
						{
							OFFSET 0.000000 12.319244 0.000000
						}
					}
					JOINT RFootTongue
					{
						OFFSET -1.142200 -1.059800 6.665200
						CHANNELS 3 Xrotation Yrotation Zrotation
						End Site
						{
							OFFSET 0.000000 12.319243 0.000000
						}
					}
				}
				JOINT RightPantLeg
				{
					OFFSET -0.919482 -16.533978 -2.284800
					CHANNELS 3 Xrotation Yrotation Zrotation
					End Site
					{
						OFFSET -0.350400 24.744419 0.000000
					}
				}
			}
		}
	}
	JOINT Spine
	{
		OFFSET 0.000000 7.722000 1.166200
		CHANNELS 3 Xrotation Yrotation Zrotation
		JOINT Spine1
		{
			OFFSET 0.000000 12.024101 0.248800
			CHANNELS 3 Xrotation Yrotation Zrotation
			JOINT Spine2
			{
				OFFSET 0.000000 11.502998 -0.491200
				CHANNELS 3 Xrotation Yrotation Zrotation
				JOINT Neck
				{
					OFFSET 0.000000 18.430702 -3.123100
					CHANNELS 3 Xrotation Yrotation Zrotation
					JOINT Head
					{
						OFFSET 0.000000 9.051102 1.034000
						CHANNELS 3 Xrotation Yrotation Zrotation
						JOINT HairB
						{
							OFFSET 0.208400 24.786102 24.822300
							CHANNELS 3 Xrotation Yrotation Zrotation
							End Site
							{
								OFFSET 0.000000 32.263779 0.000000
							}
						}
						JOINT HairA
						{
							OFFSET -7.081100 24.428299 23.196600
							CHANNELS 3 Xrotation Yrotation Zrotation
							End Site
							{
								OFFSET 0.000000 32.263779 0.000000
							}
						}
						JOINT Hat
						{
							OFFSET 16.728800 15.048294 -15.439601
							CHANNELS 3 Xrotation Yrotation Zrotation
							End Site
							{
								OFFSET 0.000000 32.263779 0.000000
							}
						}
					}
				}
				JOINT LeftShoulder
				{
					OFFSET 6.197800 13.665199 -4.064700
					CHANNELS 3 Xrotation Yrotation Zrotation
					JOINT LeftArm
					{
						OFFSET 7.778100 -0.187103 -1.709300
						CHANNELS 3 Xrotation Yrotation Zrotation
						JOINT LeftForeArm
						{
							OFFSET 22.049376 0.000000 0.000000
							CHANNELS 3 Xrotation Yrotation Zrotation
							JOINT LeftHand
							{
								OFFSET 23.009392 0.000000 0.000000
								CHANNELS 3 Xrotation Yrotation Zrotation
								JOINT LeftHandThumb1
								{
									OFFSET 3.507191 -2.063065 3.133727
									CHANNELS 3 Xrotation Yrotation Zrotation
									JOINT LeftHandThumb2
									{
										OFFSET 3.101337 -1.790558 1.790558
										CHANNELS 3 Xrotation Yrotation Zrotation
										JOINT LeftHandThumb3
										{
											OFFSET 3.058640 -1.765907 1.765906
											CHANNELS 3 Xrotation Yrotation Zrotation
											End Site
											{
												OFFSET -0.415260 3.926476 -0.049563
											}
										}
									}
								}
								JOINT LeftHandIndex1
								{
									OFFSET 11.334419 -0.901459 3.706815
									CHANNELS 3 Xrotation Yrotation Zrotation
									JOINT LeftHandIndex2
									{
										OFFSET 3.283112 0.000000 0.000000
										CHANNELS 3 Xrotation Yrotation Zrotation
										JOINT LeftHandIndex3
										{
											OFFSET 3.323853 0.000000 0.000000
											CHANNELS 3 Xrotation Yrotation Zrotation
											End Site
											{
												OFFSET -1.135597 3.097809 0.402452
											}
										}
									}
								}
								JOINT LeftHandMiddle1
								{
									OFFSET 11.335861 0.000000 0.000000
									CHANNELS 3 Xrotation Yrotation Zrotation
									JOINT LeftHandMiddle2
									{
										OFFSET 3.410492 0.000000 0.000000
										CHANNELS 3 Xrotation Yrotation Zrotation
										JOINT LeftHandMiddle3
										{
											OFFSET 3.312172 0.000000 0.000000
											CHANNELS 3 Xrotation Yrotation Zrotation
											End Site
											{
												OFFSET -1.150200 3.080154 0.400270
											}
										}
									}
								}
								JOINT LeftHandRing1
								{
									OFFSET 11.514786 -0.013176 -3.003090
									CHANNELS 3 Xrotation Yrotation Zrotation
									JOINT LeftHandRing2
									{
										OFFSET 3.053307 0.000000 0.000000
										CHANNELS 3 Xrotation Yrotation Zrotation
										JOINT LeftHandRing3
										{
											OFFSET 3.295807 0.000000 0.000000
											CHANNELS 3 Xrotation Yrotation Zrotation
											End Site
											{
												OFFSET -1.281006 3.013344 0.375733
											}
										}
									}
								}
								JOINT LeftHandPinky1
								{
									OFFSET 10.518692 -0.960396 -5.730441
									CHANNELS 3 Xrotation Yrotation Zrotation
									JOINT LeftHandPinky2
									{
										OFFSET 2.861649 0.000000 0.000000
										CHANNELS 3 Xrotation Yrotation Zrotation
										JOINT LeftHandPinky3
										{
											OFFSET 2.863380 0.000000 0.000000
											CHANNELS 3 Xrotation Yrotation Zrotation
											End Site
											{
												OFFSET -0.843597 2.711159 0.369971
											}
										}
									}
								}
							}
							JOINT LSleeve
							{
								OFFSET 6.676277 -0.344902 -1.011730
								CHANNELS 3 Xrotation Yrotation Zrotation
								End Site
								{
									OFFSET 0.000000 14.885353 0.000000
								}
							}
						}
					}
				}
				JOINT RightShoulder
				{
					OFFSET -6.197800 13.665199 -4.064700
					CHANNELS 3 Xrotation Yrotation Zrotation
					JOINT RightArm
					{
						OFFSET -7.778100 -0.187103 -1.709300
						CHANNELS 3 Xrotation Yrotation Zrotation
						JOINT RightForeArm
						{
							OFFSET -22.049376 0.000000 0.000000
							CHANNELS 3 Xrotation Yrotation Zrotation
							JOINT RightHand
							{
								OFFSET -23.009392 0.000000 0.000000
								CHANNELS 3 Xrotation Yrotation Zrotation
								JOINT RightHandThumb1
								{
									OFFSET -3.507191 -2.063065 3.133727
									CHANNELS 3 Xrotation Yrotation Zrotation
									JOINT RightHandThumb2
									{
										OFFSET -3.101337 -1.790558 1.790558
										CHANNELS 3 Xrotation Yrotation Zrotation
										JOINT RightHandThumb3
										{
											OFFSET -3.058640 -1.765907 1.765906
											CHANNELS 3 Xrotation Yrotation Zrotation
											End Site
											{
												OFFSET 0.415260 3.926476 -0.049563
											}
										}
									}
								}
								JOINT RightHandIndex1
								{
									OFFSET -11.334419 -0.901459 3.706815
									CHANNELS 3 Xrotation Yrotation Zrotation
									JOINT RightHandIndex2
									{
										OFFSET -3.283112 0.000000 0.000000
										CHANNELS 3 Xrotation Yrotation Zrotation
										JOINT RightHandIndex3
										{
											OFFSET -3.323853 0.000000 0.000000
											CHANNELS 3 Xrotation Yrotation Zrotation
											End Site
											{
												OFFSET 1.135597 3.097809 0.402452
											}
										}
									}
								}
								JOINT RightHandMiddle1
								{
									OFFSET -11.335861 0.000000 0.000000
									CHANNELS 3 Xrotation Yrotation Zrotation
									JOINT RightHandMiddle2
									{
										OFFSET -3.410492 0.000000 0.000000
										CHANNELS 3 Xrotation Yrotation Zrotation
										JOINT RightHandMiddle3
										{
											OFFSET -3.312172 0.000000 0.000000
											CHANNELS 3 Xrotation Yrotation Zrotation
											End Site
											{
												OFFSET 1.150200 3.080154 0.400270
											}
										}
									}
								}
								JOINT RightHandRing1
								{
									OFFSET -11.514786 -0.013176 -3.003090
									CHANNELS 3 Xrotation Yrotation Zrotation
									JOINT RightHandRing2
									{
										OFFSET -3.053307 0.000000 0.000000
										CHANNELS 3 Xrotation Yrotation Zrotation
										JOINT RightHandRing3
										{
											OFFSET -3.295807 0.000000 0.000000
											CHANNELS 3 Xrotation Yrotation Zrotation
											End Site
											{
												OFFSET 1.281006 3.013344 0.375733
											}
										}
									}
								}
								JOINT RightHandPinky1
								{
									OFFSET -10.518692 -0.960396 -5.730441
									CHANNELS 3 Xrotation Yrotation Zrotation
									JOINT RightHandPinky2
									{
										OFFSET -2.861649 0.000000 0.000000
										CHANNELS 3 Xrotation Yrotation Zrotation
										JOINT RightHandPinky3
										{
											OFFSET -2.863380 0.000000 0.000000
											CHANNELS 3 Xrotation Yrotation Zrotation
											End Site
											{
												OFFSET 0.843597 2.711159 0.369971
											}
										}
									}
								}
							}
							JOINT RSleeve
							{
								OFFSET -6.676277 -0.344902 -1.011730
								CHANNELS 3 Xrotation Yrotation Zrotation
								End Site
								{
									OFFSET 0.000000 14.885353 0.000000
								}
							}
						}
					}
				}
				JOINT Backpack
				{
					OFFSET 0.000000 -2.471497 36.677502
					CHANNELS 3 Xrotation Yrotation Zrotation
					End Site
					{
						OFFSET 0.000000 20.427315 0.000000
					}
				}
				JOINT Hood
				{
					OFFSET 0.000000 18.754097 -10.431000
					CHANNELS 3 Xrotation Yrotation Zrotation
					JOINT Hood1
					{
						OFFSET 0.000000 -5.011002 -7.685901
						CHANNELS 3 Xrotation Yrotation Zrotation
						End Site
						{
							OFFSET 0.000000 9.175140 0.000000
						}
					}
				}
				JOINT LHoodieString
				{
					OFFSET 5.250500 16.397697 3.089900
					CHANNELS 3 Xrotation Yrotation Zrotation
					JOINT LHoodieString1
					{
						OFFSET 0.257700 -6.364304 3.694600
						CHANNELS 3 Xrotation Yrotation Zrotation
						JOINT LHoodieString2
						{
							OFFSET 0.000000 -9.643799 2.679100
							CHANNELS 3 Xrotation Yrotation Zrotation
							End Site
							{
								OFFSET 0.000000 10.009018 0.000000
							}
						}
					}
				}
				JOINT RHoodieString
				{
					OFFSET -5.250500 16.397697 3.089900
					CHANNELS 3 Xrotation Yrotation Zrotation
					JOINT RHoodieString1
					{
						OFFSET -0.257700 -6.364304 3.694600
						CHANNELS 3 Xrotation Yrotation Zrotation
						JOINT RHoodieString2
						{
							OFFSET 0.000000 -9.643799 2.679100
							CHANNELS 3 Xrotation Yrotation Zrotation
							End Site
							{
								OFFSET 0.000000 10.009018 0.000000
							}
						}
					}
				}
			}
			JOINT LBackpack_Strap
			{
				OFFSET 15.223200 -7.719803 -6.610900
				CHANNELS 3 Xrotation Yrotation Zrotation
				End Site
				{
					OFFSET 0.000000 16.040596 0.000000
				}
			}
			JOINT RBackpack_Strap
			{
				OFFSET -15.223000 -7.719803 -6.610900
				CHANNELS 3 Xrotation Yrotation Zrotation
				End Site
				{
					OFFSET 0.000000 16.040596 0.000000
				}
			}
		}
	}
	JOINT BoyFacialAnim_Joint
	{
		OFFSET 1.000000 -82.208099 -1.550900
		CHANNELS 3 Xrotation Yrotation Zrotation
		End Site
		{
			OFFSET 0.000000 30.012791 0.000000
		}
	}
}
MOTION
Frames: 5
Frame Time: 0.016667
4.822269 13.013451 140.747223 -98.552554 -0.108744 -0.225917 0.000000 0.000000 0.000000 -40.534751 -27.553338 31.401108 98.678468 -5.442845 6.640858 6.769897 -1.495975 -13.174649 -0.000000 -0.000001 0.000000 -0.000000 -0.000001 -0.000000 -0.000001 0.000000 -0.000000 -44.852708 3.657199 -20.674021 95.279855 6.769732 -4.433124 -1.138947 0.560264 11.282348 0.000001 0.000000 0.000000 0.000001 0.000000 0.000000 -0.000001 0.000001 0.000000 3.643255 -0.706835 0.702451 0.996826 -0.409160 0.102272 1.002247 -0.404640 0.123115 11.869401 -0.692219 0.070575 20.968606 -3.405664 -0.139371 -0.000001 -0.000000 0.000000 -0.000001 -0.000000 0.000000 -0.000001 -0.000000 0.000000 -0.224979 -17.471187 -6.131980 63.391457 -14.457668 -43.758017 0.000006 -33.190369 -0.000002 11.926583 0.396561 4.407992 -18.975533 -6.392783 8.507245 7.278186 22.325612 2.208013 -0.000001 -0.000001 -0.000001 -1.359273 -16.895743 -9.169185 0.574340 2.531663 -25.560064 -0.000001 0.000000 -0.000004 0.066806 2.541847 -1.771550 0.574335 2.531665 -25.560064 -0.000000 0.000000 0.000000 -0.079261 11.343944 1.376912 0.156697 1.347265 -13.267768 -0.000002 0.000004 0.000000 -1.005458 24.263593 3.994946 0.021163 0.498122 -4.866733 -0.000000 0.000002 0.000000 -0.000002 0.000001 0.000001 -2.454914 7.297286 14.160513 82.050619 23.802210 19.508779 -0.000000 33.367390 -0.000001 -15.931034 26.703866 -8.895966 7.833051 7.095061 7.571906 7.285910 -22.249509 -2.728450 0.000000 0.000001 -0.000002 0.350965 12.645975 48.306431 0.520615 -2.141532 27.324918 -0.000000 0.000003 0.000004 1.687076 -5.825080 49.552244 0.000001 -0.000018 -0.000005 0.000003 -0.000000 -0.000000 7.431444 -12.945088 39.159131 0.000003 -0.000013 -0.000000 -0.000002 0.000000 0.000002 -2.798261 -28.992319 29.298414 -0.000006 0.000001 0.000012 -0.000000 -0.000001 0.000000 0.000001 -0.000001 0.000000 0.000000 0.000000 0.000000 0.000000 0.000000 0.000000 0.000000 0.000000 0.000000 0.000000 0.000000 0.000000 0.000000 0.000000 0.000000 0.000000 0.000000 0.000000 0.000000 0.000000 0.000000 0.000000 0.000000 0.000000 0.000000 0.000000 0.000000 -0.000000 -0.000000 0.000000 -0.000000 -0.000000 0.000000 0.000000 0.000000 0.000000 
4.876712 12.950317 140.682861 -98.539146 0.064605 -0.169765 -0.000001 0.000000 -0.000000 -40.879382 -27.569510 31.148057 98.644857 -5.126799 6.678643 6.682760 -1.482635 -13.494708 -0.000001 0.000000 0.000001 -0.000001 0.000000 0.000001 0.000001 0.000001 0.000003 -44.325769 3.060801 -20.872254 94.311416 6.335454 -4.488939 -2.224662 0.558403 12.319911 0.000001 0.000001 -0.000000 0.000001 0.000001 -0.000000 0.000001 -0.000000 -0.000000 3.848680 -0.697764 0.691672 1.031025 -0.407030 0.091107 1.036536 -0.402723 0.114033 12.329899 -0.703528 0.096694 21.499281 -3.429746 -0.164761 0.000000 0.000000 0.000000 0.000000 0.000000 0.000000 0.000000 0.000000 0.000000 -0.240339 -17.364784 -6.480457 63.299113 -14.213852 -43.254106 -0.000002 -33.210825 0.000002 11.917005 0.404505 4.405478 -18.975510 -6.392773 8.507249 7.278175 22.325622 2.208012 -0.000002 0.000000 -0.000000 -1.359271 -16.895745 -9.169184 0.574340 2.531647 -25.560062 -0.000001 -0.000001 -0.000000 0.066802 2.541865 -1.771547 0.574333 2.531637 -25.560071 0.000001 -0.000002 -0.000002 -0.079262 11.343949 1.376913 0.156696 1.347264 -13.267768 -0.000002 0.000001 -0.000000 -1.005465 24.263595 3.994942 0.021170 0.498115 -4.866723 0.000000 -0.000003 -0.000001 -0.000001 0.000004 0.000001 -2.482200 7.018729 14.624711 81.478529 23.186636 19.645593 -0.000007 33.245901 0.000005 -15.507270 26.798121 -8.793891 7.793405 7.101453 7.515302 7.283442 -22.228248 -2.727022 0.000001 0.000000 0.000001 0.335948 12.653732 48.176429 0.520458 -2.141222 27.320390 -0.000001 0.000001 0.000002 1.669372 -5.810006 49.433361 -0.000004 -0.000009 -0.000003 -0.000003 -0.000001 -0.000004 7.397310 -12.931442 39.055869 -0.000001 -0.000001 0.000016 0.000000 -0.000000 -0.000001 -2.810815 -28.967444 29.197611 -0.000000 -0.001266 0.015458 -0.000003 -0.000000 0.000000 -0.000000 -0.000001 0.000000 0.000000 0.000000 -0.000000 0.000000 0.000000 -0.000000 0.000000 0.000000 -0.000000 0.000000 0.000000 -0.000000 0.000000 0.000000 -0.000000 0.000000 0.000000 0.000000 0.000000 0.000000 -0.000000 0.000000 0.000000 -0.000000 0.000000 0.000000 0.000000 0.000000 0.000000 0.000000 0.000000 0.000000 0.000000 -0.000001 0.000000 -0.000000 
4.925253 12.883492 140.612427 -98.528546 0.224935 -0.094512 -0.000000 0.000000 -0.000000 -41.241457 -27.546827 30.895541 98.616956 -4.832095 6.699190 6.626842 -1.465366 -13.767672 -0.000000 0.000000 0.000000 -0.000000 0.000000 -0.000002 0.000003 0.000002 0.000003 -43.734709 2.421058 -21.046936 93.235074 5.865810 -4.550755 -3.294906 0.634324 13.377657 0.000001 -0.000000 0.000001 0.000001 -0.000000 0.000001 -0.000001 -0.000000 -0.000001 4.143241 -0.689545 0.659196 1.137655 -0.405697 0.070828 1.143166 -0.402001 0.095220 12.729190 -0.700866 0.120165 22.078014 -3.388852 -0.214323 0.000002 -0.000000 -0.000000 0.000002 -0.000000 -0.000000 0.000002 -0.000000 -0.000000 -0.154410 -16.831190 -6.895303 63.080547 -13.982387 -42.252862 0.000006 -33.293774 0.000009 11.914766 0.448053 4.394557 -18.975531 -6.392799 8.507236 7.278180 22.325629 2.208021 0.000000 -0.000001 -0.000001 -1.359270 -16.895750 -9.169185 0.574340 2.531657 -25.560057 -0.000001 -0.000000 -0.000000 0.066797 2.541845 -1.771548 0.574344 2.531674 -25.560059 -0.000001 -0.000001 0.000004 -0.079263 11.343915 1.376909 0.156700 1.347276 -13.267767 -0.000002 0.000001 -0.000002 -1.005462 24.263584 3.994939 0.021171 0.498116 -4.866729 0.000001 0.000002 0.000000 0.000002 -0.000000 -0.000000 -2.516762 6.886644 15.038910 80.629140 22.829692 19.944864 -0.000001 32.748332 -0.000001 -14.761308 26.600061 -8.650810 7.677674 7.119780 7.350155 7.276373 -22.167324 -2.722942 0.000002 0.000002 -0.000002 0.293475 12.676126 47.797500 0.519950 -2.140241 27.307009 0.000001 0.000002 0.000005 1.618776 -5.766393 49.086968 0.000003 0.000004 -0.000003 0.000001 -0.000001 -0.000004 7.298870 -12.892075 38.754879 -0.000002 -0.000004 0.000096 -0.000001 0.000000 0.000000 -2.846829 -28.895436 28.904182 -0.000004 -0.004942 0.060543 0.000000 -0.000001 -0.000002 -0.000000 -0.000000 0.000000 -0.000000 -0.000000 0.000000 -0.000000 -0.000000 0.000000 -0.000000 -0.000000 0.000000 -0.000000 -0.000000 0.000000 -0.000000 -0.000000 0.000000 0.000000 -0.000000 0.000000 -0.000000 -0.000000 0.000000 -0.000000 -0.000000 0.000000 0.000000 -0.000000 0.000000 0.000000 0.000000 0.000000 0.000000 0.000000 0.000000 -0.000000 0.000000 -0.000000 
4.966283 12.812492 140.537781 -98.530424 0.366662 -0.004255 0.000000 -0.000000 0.000000 -41.608041 -27.481220 30.652499 98.597421 -4.556680 6.700702 6.598475 -1.444842 -13.981108 -0.000002 0.000001 0.000001 -0.000002 0.000001 -0.000002 -0.000003 0.000002 0.000002 -43.064585 1.736109 -21.221664 92.047632 5.507969 -4.591036 -4.375420 0.659303 14.527858 0.000001 -0.000001 0.000001 0.000001 -0.000001 0.000001 -0.000002 0.000000 -0.000000 4.410732 -0.694177 0.610070 1.255843 -0.410343 0.044730 1.261415 -0.407324 0.070598 13.050124 -0.685838 0.139931 22.764367 -3.297649 -0.308211 -0.000001 -0.000000 0.000000 -0.000001 -0.000000 0.000000 -0.000001 -0.000000 0.000000 -0.073210 -16.364817 -7.317481 62.845841 -13.725588 -41.337230 0.000002 -33.322154 0.000007 11.894103 0.459392 4.390760 -18.975526 -6.392795 8.507229 7.278182 22.325616 2.208012 0.000001 -0.000003 -0.000003 -1.359269 -16.895767 -9.169193 0.574342 2.531658 -25.560062 0.000000 -0.000001 -0.000000 0.066800 2.541843 -1.771552 0.574336 2.531635 -25.560071 -0.000001 -0.000000 0.000000 -0.079260 11.343925 1.376909 0.156698 1.347270 -13.267772 -0.000001 0.000004 -0.000002 -1.005456 24.263567 3.994933 0.021170 0.498107 -4.866731 0.000002 -0.000003 -0.000001 -0.000001 -0.000000 0.000001 -2.562780 6.924872 15.366532 79.650777 22.623110 20.419424 0.000001 32.127571 0.000000 -13.938553 26.344936 -8.468985 7.490622 7.148977 7.083555 7.265214 -22.071319 -2.716518 0.000001 0.000001 -0.000002 0.227422 12.712856 47.186451 0.519136 -2.138660 27.285088 -0.000002 0.000000 0.000000 1.539447 -5.696230 48.528330 0.000000 0.000012 0.000016 0.000001 -0.000001 -0.000004 7.142425 -12.828737 38.269485 -0.000004 -0.000006 0.000001 -0.000000 -0.000000 0.000000 -2.903333 -28.780488 28.431815 0.000020 -0.010859 0.133277 0.000001 0.000000 0.000002 -0.000000 -0.000000 0.000000 0.000000 -0.000000 -0.000000 0.000000 -0.000000 -0.000000 0.000000 -0.000000 -0.000000 0.000000 -0.000000 -0.000000 0.000000 -0.000000 -0.000000 0.000000 -0.000000 -0.000000 0.000000 -0.000000 -0.000000 0.000000 -0.000000 -0.000000 0.000000 -0.000000 -0.000000 0.000000 0.000000 -0.000000 0.000000 0.000000 -0.000000 0.000000 -0.000000 0.000000 
5.000751 12.737335 140.461426 -98.545853 0.492162 0.095555 -0.000001 0.000000 0.000000 -41.980006 -27.373385 30.414754 98.587729 -4.288977 6.686826 6.598796 -1.423764 -14.129644 0.000000 -0.000001 0.000001 0.000000 -0.000001 -0.000002 -0.000001 -0.000001 -0.000001 -42.301834 0.995546 -21.414036 90.727650 5.221945 -4.596848 -5.487840 0.664553 15.801520 0.000003 -0.000001 0.000001 0.000003 -0.000001 0.000001 -0.000001 -0.000000 -0.000000 4.653619 -0.721152 0.553700 1.387990 -0.425766 0.016742 1.393694 -0.423227 0.044398 13.294721 -0.660562 0.148634 23.556805 -3.182666 -0.448012 0.000000 0.000000 -0.000000 0.000000 0.000000 -0.000000 0.000000 0.000000 -0.000000 0.009498 -15.933920 -7.745199 62.583200 -13.462228 -40.495338 -0.000004 -33.289294 0.000002 11.854287 0.434911 4.394802 -18.975526 -6.392801 8.507233 7.278175 22.325628 2.208027 -0.000003 -0.000002 -0.000001 -1.359271 -16.895759 -9.169183 0.574341 2.531660 -25.560055 0.000001 0.000000 -0.000000 0.066799 2.541838 -1.771552 0.574336 2.531624 -25.560076 -0.000000 0.000001 -0.000003 -0.079260 11.343928 1.376907 0.156699 1.347280 -13.267771 0.000001 0.000002 -0.000000 -1.005461 24.263579 3.994930 0.021167 0.498121 -4.866730 0.000000 0.000000 -0.000002 -0.000002 -0.000000 0.000001 -2.620613 7.110671 15.598115 78.640968 22.506875 21.021516 -0.000004 31.831912 0.000009 -13.009553 25.690073 -8.391396 7.236935 7.188319 6.722694 7.250487 -21.944734 -2.708050 0.000001 0.000001 -0.000001 0.141802 12.764505 46.360220 0.518013 -2.136471 27.254866 0.000002 -0.000001 0.000005 1.435867 -5.601222 47.772816 -0.000003 -0.000000 -0.000004 0.000002 -0.000003 -0.000001 6.934731 -12.742658 37.613087 -0.000004 -0.000010 0.000033 0.000002 -0.000001 0.000000 -2.976868 -28.627189 27.794384 0.000036 -0.018871 0.231722 0.000002 0.000002 -0.000001 -0.000000 -0.000000 0.000000 0.000000 -0.000000 0.000000 0.000000 -0.000000 0.000000 0.000000 -0.000000 0.000000 0.000000 -0.000000 0.000000 0.000000 -0.000000 0.000000 0.000000 -0.000000 0.000000 0.000000 -0.000000 0.000000 0.000000 -0.000000 0.000000 0.000000 -0.000000 0.000000 -0.000000 0.000000 -0.000000 -0.000000 0.000000 -0.000000 -0.000001 0.000000 0.000000 
